<svg xmlns="http://www.w3.org/2000/svg"  viewBox="0 0 24 24" width="24px" height="24px"><path d="M 5 3 C 3.898438 3 3 3.898438 3 5 L 3 19 C 3 20.101563 3.898438 21 5 21 L 19 21 C 20.101563 21 21 20.101563 21 19 L 21 5 C 21 3.898438 20.101563 3 19 3 Z M 7.3125 7.6875 L 9.90625 7.6875 C 10.304688 7.6875 12.59375 7.699219 12.59375 10 C 12.59375 11.300781 11.699219 11.710938 11.5 11.8125 C 11.699219 11.914063 12.6875 12.1875 12.6875 13.6875 C 12.789063 15.585938 11.695313 16.3125 10.09375 16.3125 L 7.3125 16.3125 Z M 9 9.1875 L 9 11.3125 L 9.90625 11.3125 C 10.507813 11.3125 10.90625 11.011719 10.90625 10.3125 C 10.90625 9.3125 10.304688 9.1875 9.90625 9.1875 Z M 16.59375 9.8125 C 16.695313 9.8125 16.992188 9.90625 17.09375 9.90625 L 17.09375 11.5 L 16.5 11.5 C 15.898438 11.5 15.695313 11.894531 15.59375 12.09375 L 15.59375 16.3125 L 13.90625 16.3125 L 13.90625 9.90625 L 15.5 9.90625 L 15.5 10.59375 C 15.601563 10.292969 15.992188 9.8125 16.59375 9.8125 Z M 9 12.59375 L 9 14.90625 L 10.09375 14.90625 C 10.59375 14.90625 11 14.613281 11 13.8125 C 11.101563 13.011719 10.789063 12.59375 10.1875 12.59375 Z"/></svg>